<?xml version="1.0" encoding="UTF-8"?>
<mxfile host="app.diagrams.net" modified="2024-03-18T02:00:00.000Z" agent="Mozilla/5.0" version="22.1.18">
  <diagram id="day4-architecture" name="Day 4 - Database Architecture">
    <mxGraphModel dx="1422" dy="798" grid="1" gridSize="10" guides="1" tooltips="1" connect="1" arrows="1" fold="1" page="1" pageScale="1" pageWidth="1169" pageHeight="827" math="0" shadow="0">
      <root>
        <mxCell id="0"/>
        <mxCell id="1" parent="0"/>
        
        <!-- VPC -->
        <mxCell id="vpc" value="VPC" style="points=[[0,0],[0.25,0],[0.5,0],[0.75,0],[1,0],[1,0.25],[1,0.5],[1,0.75],[1,1],[0.75,1],[0.5,1],[0.25,1],[0,1],[0,0.75],[0,0.5],[0,0.25]];outlineConnect=0;gradientColor=none;html=1;whiteSpace=wrap;fontSize=12;fontStyle=0;container=1;pointerEvents=0;collapsible=0;recursiveResize=0;shape=mxgraph.aws4.group;grIcon=mxgraph.aws4.group_vpc;strokeColor=#248814;fillColor=none;verticalAlign=top;align=left;spacingLeft=30;fontColor=#248814;dashed=0;" vertex="1" parent="1">
          <mxGeometry x="160" y="80" width="720" height="560" as="geometry"/>
        </mxCell>

        <!-- Public Subnet 1 -->
        <mxCell id="pubsub1" value="Public Subnet 1" style="points=[[0,0],[0.25,0],[0.5,0],[0.75,0],[1,0],[1,0.25],[1,0.5],[1,0.75],[1,1],[0.75,1],[0.5,1],[0.25,1],[0,1],[0,0.75],[0,0.5],[0,0.25]];outlineConnect=0;gradientColor=none;html=1;whiteSpace=wrap;fontSize=12;fontStyle=0;container=1;pointerEvents=0;collapsible=0;recursiveResize=0;shape=mxgraph.aws4.group;grIcon=mxgraph.aws4.group_security_group;grStroke=0;strokeColor=#248814;fillColor=#E9F3E6;verticalAlign=top;align=left;spacingLeft=30;fontColor=#248814;dashed=0;" vertex="1" parent="vpc">
          <mxGeometry x="40" y="80" width="280" height="200" as="geometry"/>
        </mxCell>

        <!-- Public Subnet 2 -->
        <mxCell id="pubsub2" value="Public Subnet 2" style="points=[[0,0],[0.25,0],[0.5,0],[0.75,0],[1,0],[1,0.25],[1,0.5],[1,0.75],[1,1],[0.75,1],[0.5,1],[0.25,1],[0,1],[0,0.75],[0,0.5],[0,0.25]];outlineConnect=0;gradientColor=none;html=1;whiteSpace=wrap;fontSize=12;fontStyle=0;container=1;pointerEvents=0;collapsible=0;recursiveResize=0;shape=mxgraph.aws4.group;grIcon=mxgraph.aws4.group_security_group;grStroke=0;strokeColor=#248814;fillColor=#E9F3E6;verticalAlign=top;align=left;spacingLeft=30;fontColor=#248814;dashed=0;" vertex="1" parent="vpc">
          <mxGeometry x="400" y="80" width="280" height="200" as="geometry"/>
        </mxCell>

        <!-- RDS Instance -->
        <mxCell id="rds" value="Amazon RDS&#xa;MySQL" style="sketch=0;points=[[0,0,0],[0.25,0,0],[0.5,0,0],[0.75,0,0],[1,0,0],[0,1,0],[0.25,1,0],[0.5,1,0],[0.75,1,0],[1,1,0],[0,0.25,0],[0,0.5,0],[0,0.75,0],[1,0.25,0],[1,0.5,0],[1,0.75,0]];outlineConnect=0;fontColor=#232F3E;fillColor=#C925D1;strokeColor=#ffffff;dashed=0;verticalLabelPosition=bottom;verticalAlign=top;align=center;html=1;fontSize=12;fontStyle=0;aspect=fixed;shape=mxgraph.aws4.resourceIcon;resIcon=mxgraph.aws4.rds;" vertex="1" parent="vpc">
          <mxGeometry x="320" y="320" width="80" height="80" as="geometry"/>
        </mxCell>

        <!-- DynamoDB -->
        <mxCell id="dynamodb" value="DynamoDB&#xa;ProductInventory" style="sketch=0;points=[[0,0,0],[0.25,0,0],[0.5,0,0],[0.75,0,0],[1,0,0],[0,1,0],[0.25,1,0],[0.5,1,0],[0.75,1,0],[1,1,0],[0,0.25,0],[0,0.5,0],[0,0.75,0],[1,0.25,0],[1,0.5,0],[1,0.75,0]];outlineConnect=0;fontColor=#232F3E;fillColor=#C925D1;strokeColor=#ffffff;dashed=0;verticalLabelPosition=bottom;verticalAlign=top;align=center;html=1;fontSize=12;fontStyle=0;aspect=fixed;shape=mxgraph.aws4.resourceIcon;resIcon=mxgraph.aws4.dynamodb;" vertex="1" parent="vpc">
          <mxGeometry x="320" y="440" width="80" height="80" as="geometry"/>
        </mxCell>

        <!-- Security Group -->
        <mxCell id="sg" value="Security Group" style="fillColor=none;strokeColor=#DD3522;verticalAlign=top;fontStyle=0;fontColor=#DD3522;whiteSpace=wrap;html=1;" vertex="1" parent="vpc">
          <mxGeometry x="280" y="280" width="160" height="160" as="geometry"/>
        </mxCell>

        <!-- Internet Gateway -->
        <mxCell id="igw" value="Internet&#xa;Gateway" style="sketch=0;outlineConnect=0;fontColor=#232F3E;gradientColor=none;fillColor=#8C4FFF;strokeColor=none;dashed=0;verticalLabelPosition=bottom;verticalAlign=top;align=center;html=1;fontSize=12;fontStyle=0;aspect=fixed;pointerEvents=1;shape=mxgraph.aws4.internet_gateway;" vertex="1" parent="1">
          <mxGeometry x="480" y="20" width="80" height="80" as="geometry"/>
        </mxCell>

        <!-- Connections -->
        <mxCell id="conn1" value="" style="endArrow=classic;html=1;rounded=0;" edge="1" parent="1" source="igw" target="vpc">
          <mxGeometry width="50" height="50" relative="1" as="geometry"/>
        </mxCell>

        <mxCell id="conn2" value="" style="endArrow=classic;startArrow=classic;html=1;rounded=0;" edge="1" parent="1" source="pubsub1" target="rds">
          <mxGeometry width="50" height="50" relative="1" as="geometry"/>
        </mxCell>

        <mxCell id="conn3" value="" style="endArrow=classic;startArrow=classic;html=1;rounded=0;" edge="1" parent="1" source="pubsub2" target="rds">
          <mxGeometry width="50" height="50" relative="1" as="geometry"/>
        </mxCell>

      </root>
    </mxGraphModel>
  </diagram>
</mxfile>